<svg width="234" height="234" viewBox="0 0 234 234" fill="none" xmlns="http://www.w3.org/2000/svg">
<circle cx="117" cy="117" r="117" fill="#282828"/>
<ellipse cx="117.263" cy="117" rx="32" ry="110" stroke="#282828" stroke-width="10"/>
<ellipse cx="117.263" cy="117" rx="32" ry="110" stroke="#D284DF" stroke-width="6"/>
<ellipse cx="117.263" cy="117" rx="32" ry="110" transform="rotate(60 117.263 117)" stroke="#282828" stroke-width="10"/>
<ellipse cx="117.263" cy="117" rx="32" ry="110" transform="rotate(60 117.263 117)" stroke="#D284DF" stroke-width="6"/>
<ellipse cx="117.263" cy="117" rx="32" ry="110" transform="rotate(120 117.263 117)" stroke="#282828" stroke-width="10"/>
<ellipse cx="117.263" cy="117" rx="32" ry="110" transform="rotate(120 117.263 117)" stroke="#D284DF" stroke-width="6"/>
<circle cx="98" cy="117" r="6" fill="#D284DF"/>
<circle cx="103" cy="104" r="6" fill="#D284DF"/>
<circle cx="6" cy="6" r="6" transform="matrix(-1 0 0 1 142 111)" fill="#D284DF"/>
<circle cx="6" cy="6" r="6" transform="matrix(-1 0 0 1 137 98)" fill="#D284DF"/>
<circle cx="117" cy="98" r="6" fill="#D284DF"/>
</svg>
